<svg xmlns="http://www.w3.org/2000/svg" style="isolation:isolate" viewBox="0 0 320 170" width="320pt" height="170pt"><defs><clipPath id="a"><path d="M0 0h320v170H0z"/></clipPath></defs><g clip-path="url(#a)"><path d="M78.47 64.92c-1.23 7.93-12.34 8.28-13.39 0-.28-8.04 1.94-12.89 7.58-13.39 2.37-.09 4.29 1.49 5.82 4.58 7.42-1.15 10.53-6.55 9.12-11.7-.92-3.35-3.82-5.83-7.18-6.72-14.84-3.92-27.86 4.37-31.26 20.73-.87 4.17-.95 8.52.16 12.63 3.8 14.02 17.41 18.53 30.29 12.91 2.97-1.3 5.74-3.16 7.57-5.83 5.65-8.27-1.47-16.14-8.71-13.21z" fill="#F24297"/><path d="M68.85 87.29c-3.36 0-6.58-.69-9.46-2.07-5.47-2.63-9.29-7.44-11.05-13.92-1.09-4.02-1.15-8.42-.18-13.09 1.75-8.38 6.11-15.11 12.3-18.93 5.77-3.57 12.94-4.47 20.2-2.56 3.89 1.03 6.91 3.87 7.89 7.42.75 2.74.35 5.53-1.15 7.83-1.75 2.7-4.87 4.52-8.78 5.12l-.72.11-.32-.66c-1.37-2.78-2.96-4.1-4.88-4.02-4.71.42-6.89 4.46-6.62 12.36.48 3.7 3.24 5.08 5.45 5.11 2.51.04 5.39-1.57 5.95-5.23l.09-.56.53-.21c3.75-1.51 7.75-.53 10.19 2.51 2.11 2.62 3.14 7.2-.28 12.19-1.75 2.55-4.44 4.63-8 6.18-3.71 1.62-7.52 2.42-11.16 2.42zm4.36-49.57c-4.23 0-8.19 1.1-11.69 3.26-5.71 3.53-9.76 9.8-11.39 17.64-.91 4.36-.86 8.45.15 12.16 1.6 5.9 5.05 10.28 9.98 12.64 5.46 2.62 12.37 2.48 18.94-.39 3.21-1.4 5.62-3.24 7.15-5.48 2.8-4.09 2.03-7.75.38-9.81-1.77-2.2-4.62-2.99-7.38-2.09-.96 4.41-4.69 6.38-7.85 6.34-3.25-.04-6.81-2.21-7.41-6.95-.33-9.14 2.53-13.99 8.48-14.52 2.62-.11 4.76 1.4 6.45 4.46 3.01-.61 5.38-2.05 6.71-4.11 1.18-1.82 1.5-4.03.9-6.22-.79-2.86-3.27-5.17-6.47-6.01-2.38-.61-4.7-.92-6.95-.92z" fill="#FFF"/><path d="M131.43 66.43l-.53-29.7c-6.3-2.18-10.98.78-14.75 6.65-11.27-8.13-22.68-.72-23.98 17.53-.17 2.4-.1 4.86.5 7.19 3.78 14.56 20.77 13.47 24.14 1.36 3.29 7.9 14.49 6.32 17.52 0l-2.9-3.03zm-15.64-4.13c-1.84 3.46-8.21 6.37-9.06-1.96-.49-9.16 5.23-11.59 9.06-7.23v9.19z" fill="#F24297"/><path d="M104.98 79.78h-.11c-4.94-.04-10.99-3.07-13.16-11.43-.56-2.17-.74-4.63-.53-7.51.73-10.24 4.63-17.74 10.69-20.57 4.31-2.02 9.26-1.4 14.02 1.72 4.32-6.24 9.35-8.27 15.35-6.19l.66.23.53 30.01 3.11 3.25-.3.62c-1.72 3.6-6.02 6.03-10.46 5.91-3.29-.09-6.03-1.5-7.77-3.94-2.19 4.8-6.78 7.9-12.03 7.9zm2.11-38.68c-1.52 0-3 .32-4.38.97-5.38 2.52-8.86 9.41-9.54 18.9-.19 2.66-.04 4.91.47 6.87 1.89 7.27 7.05 9.9 11.24 9.94 4.25.06 9.3-2.6 10.96-8.59l.77-2.79 1.11 2.67c1.22 2.92 3.8 4.65 7.09 4.73 3.4.11 6.71-1.6 8.28-4.18l-2.66-2.79-.52-29.37c-5.04-1.47-9.16.6-12.92 6.45l-.57.89-.86-.62c-2.83-2.04-5.73-3.08-8.47-3.08zm3.57 25.65c-.28 0-.56-.03-.83-.08-1.61-.31-3.62-1.65-4.1-6.23-.28-5.14 1.3-8.89 4.21-10.08 2.19-.9 4.66-.11 6.6 2.09l.25.28v9.81l-.12.22c-1.09 2.06-3.58 3.99-6.01 3.99zm1.1-14.74c-.37 0-.72.07-1.06.21-1.61.66-3.24 3.12-2.98 8.07.15 1.47.68 4.07 2.49 4.42 1.63.31 3.65-1.12 4.58-2.67v-8.53c-.95-.98-2.02-1.5-3.03-1.5z" fill="#FFF"/><path d="M163.68 44.35c8.38-6.92.21-14.46-8.7-14.46-10.36.45-17.4 4.22-18.27 14.14-.23 2.57.54 5.2 2.28 7.1 3.5 3.81 8.75 4.16 11.69 5.16 1.31.44 1.07 2.4-.31 2.44-3.53.12-8.29-.99-12.67-3.38-5.63 7.51-.52 16.03 15.72 13.41 16.66-2.51 17.5-18.44 9.22-22.11-3.85-2.11-8.12-2.57-10.75-3.24-1.13-.29-1.24-1.91-.13-2.29 3.8-1.28 7.91.41 11.92 3.23z" fill="#F24297"/><path d="M147.77 70.25c-5.87 0-10.19-1.75-12.2-5.07-1.82-3-1.32-6.9 1.32-10.42l.52-.69.76.41c3.96 2.16 8.51 3.37 12.16 3.26.07 0 .18-.01.2-.19.02-.11 0-.25-.18-.31-.66-.22-1.48-.42-2.35-.63-2.91-.71-6.88-1.67-9.76-4.8-1.88-2.04-2.8-4.91-2.54-7.86.85-9.6 7.14-14.52 19.23-15.05 5.88 0 11.38 3.08 12.84 7.15.64 1.79 1.05 5.35-3.47 9.08l-.59.48-.62-.44c-4.41-3.1-8.02-4.11-11.03-3.09-.04.01-.1.03-.1.16 0 .08.03.18.15.21.61.15 1.31.3 2.07.45 2.6.53 5.84 1.2 8.91 2.88 3.94 1.74 6.19 6.2 5.54 11.06-.71 5.25-5.04 11.4-15.09 12.91-2.04.33-3.97.5-5.77.5zm-9.76-13.6c-1.74 2.67-2.01 5.36-.72 7.49 2.14 3.54 8.11 4.9 15.96 3.64 8.97-1.35 12.81-6.67 13.42-11.2.53-3.97-1.25-7.59-4.44-9-2.88-1.57-5.95-2.2-8.42-2.71-.8-.16-1.53-.31-2.16-.48-.96-.24-1.62-1.07-1.66-2.07-.04-.98.53-1.82 1.46-2.13 3.5-1.18 7.49-.23 12.17 2.91 2.26-2.07 3.05-4.26 2.3-6.37-1.17-3.27-5.97-5.83-10.92-5.83-11.02.48-16.52 4.69-17.28 13.23-.21 2.4.53 4.7 2.02 6.33 2.46 2.68 5.95 3.53 8.75 4.21.91.22 1.78.43 2.52.68 1.06.36 1.68 1.38 1.51 2.49a2.198 2.198 0 01-2.12 1.9c-3.75.1-8.32-1.03-12.39-3.09z" fill="#FFF"/><path d="M189.89 57.4l-3.15-3.44V30.11c0-2.09-1.06-4.11-2.92-5.08-3.15-1.64-7.86-1.04-10.86 1.86-1.38 1.34-2.06 3.25-2.06 5.17v22.41c0 1.91.59 3.82 1.87 5.24 4.66 5.18 14.24 3.76 17.12-2.31z" fill="#F24297"/><path d="M180.33 63.89c-3.26 0-6.27-1.25-8.3-3.51-1.37-1.52-2.12-3.62-2.12-5.91V32.06c0-2.29.86-4.44 2.36-5.89 3.18-3.07 8.35-3.95 12.02-2.03 2.13 1.11 3.45 3.4 3.45 5.97v23.46l3.34 3.65-.29.61c-1.49 3.15-4.71 5.36-8.59 5.93-.63.08-1.25.13-1.87.13zm-.37-38.76c-2.26 0-4.64.88-6.3 2.48-1.11 1.08-1.75 2.7-1.75 4.45v22.41c0 1.8.57 3.42 1.61 4.57 1.97 2.19 5.11 3.22 8.4 2.73 2.97-.43 5.45-1.99 6.76-4.22l-2.93-3.21V30.11c0-1.79-.93-3.44-2.38-4.19-1.02-.54-2.2-.79-3.41-.79z" fill="#FFF"/><ellipse cx="178.66" cy="14.7" rx="8.5" ry="8" fill="#F24297"/><path d="M178.66 23.69c-5.24 0-9.5-4.04-9.5-9s4.26-9 9.5-9 9.5 4.04 9.5 9-4.26 9-9.5 9zm0-15.99c-4.14 0-7.5 3.14-7.5 7s3.37 7 7.5 7 7.5-3.14 7.5-7-3.37-7-7.5-7z" fill="#FFF"/><path d="M233.48 46.38l-3.54-2.39V24.53c-3.02-13.11-16.8-11.55-22.79 1.25-3.17-5.59-7.8-7.06-14.36-3.09v30.33c0 1.74.88 3.41 2.41 4.24 4.71 2.57 12.87.58 13.3-4.75V32.32c0-1.61 1.3-2.91 2.91-2.91s2.91 1.3 2.91 2.91V47.1c0 1.32.44 2.62 1.32 3.6 5.35 5.99 17.07 2.53 17.84-4.32z" fill="#F24297"/><path d="M199.97 59.39c-1.88 0-3.73-.41-5.25-1.25-1.81-.99-2.93-2.95-2.93-5.12v-30.9l.48-.29c3.49-2.12 6.64-2.83 9.35-2.12 2.07.54 3.89 1.9 5.43 4.06 3.45-6.18 9.08-9.87 14.41-9.3 4.68.5 8.12 4.08 9.45 9.84l.03.22v18.93l3.6 2.43-.07.6c-.38 3.4-3.15 6.32-7.25 7.63-4.66 1.49-9.5.41-12.32-2.75-1.01-1.14-1.57-2.65-1.57-4.27V32.33c0-1.05-.86-1.91-1.91-1.91-1.05 0-1.91.86-1.91 1.91v20.19c-.18 2.33-1.55 4.25-3.85 5.5-1.71.91-3.71 1.37-5.69 1.37zm-6.18-36.13v29.76c0 1.44.72 2.73 1.89 3.36 2.53 1.38 6.32 1.33 9.02-.13 1.19-.64 2.65-1.83 2.81-3.82V32.32c0-2.16 1.76-3.91 3.91-3.91 2.15 0 3.91 1.76 3.91 3.91V47.1c0 1.12.38 2.16 1.07 2.93 2.79 3.12 7.25 3.13 10.22 2.17 3.08-.98 5.24-3.01 5.77-5.37l-3.45-2.33V24.65c-1.14-4.81-3.93-7.79-7.68-8.19-4.93-.52-10.23 3.4-13.2 9.75l-.82 1.75-.96-1.69c-1.45-2.55-3.18-4.11-5.16-4.62-2.06-.54-4.52.01-7.33 1.61z" fill="#FFF"/><path d="M261.35 9c-.58-.27-1.21-.46-1.84-.59-24.83-5.06-35.25 31.51-13.64 38.41.57.18 1.16.3 1.75.37 25.93 2.85 30.03-30.65 13.73-38.19zm-6.31 25.29c-1.87 1.78-5 1.3-6.15-1.02-1.36-2.74-1.27-7.12.2-10.32 1.49-3.23 6.04-3.39 7.65-.22 1.72 3.39 1.33 8.68-1.7 11.56z" fill="#F24297"/><path d="M250.7 48.36c-1.02 0-2.09-.06-3.19-.18-.68-.08-1.34-.21-1.95-.41-11.28-3.6-13.94-14.76-11.63-23.61 2.62-10.06 11.81-19.58 25.78-16.74.75.15 1.44.38 2.06.66 9.35 4.33 11.8 16 9.35 24.79-2.15 7.74-8.61 15.49-20.42 15.49zm4.17-39.43c-10.2 0-16.9 7.69-19.01 15.74-2.15 8.23.21 17.97 10.3 21.2.48.16 1.01.26 1.56.32 12.61 1.39 19.35-6.24 21.47-13.84 2.22-8 .08-18.58-8.26-22.44-.48-.22-1.03-.4-1.62-.52-1.55-.32-3.03-.46-4.44-.46zm-2.55 27.44c-.29 0-.57-.02-.86-.08a4.745 4.745 0 01-3.47-2.58c-1.49-3.01-1.41-7.71.19-11.18.86-1.87 2.66-3.06 4.71-3.1 2.05-.04 3.82 1.05 4.74 2.84 1.8 3.54 1.59 9.42-1.9 12.73-.92.89-2.15 1.37-3.41 1.37zm.68-14.93h-.07c-1.27.03-2.4.77-2.94 1.93-1.34 2.92-1.43 6.99-.21 9.46.39.79 1.13 1.34 2.02 1.49.93.16 1.86-.11 2.54-.76 2.73-2.6 2.98-7.46 1.5-10.38-.55-1.09-1.61-1.74-2.84-1.74z" fill="#FFF"/><g><linearGradient id="b" x1=".5" y1="1" x2=".5" y2="0" gradientTransform="matrix(61.199 0 0 73.752 185.59 61.538)" gradientUnits="userSpaceOnUse"><stop offset="33.8%" stop-color="#3f7cb5"/><stop offset="100%" stop-color="#2bb1d2"/></linearGradient><path d="M217.09 90.92l10.63-24.99c.88-2.07 2.7-3.66 4.92-4.08 10.03-1.9 17.54 5.02 12.58 16.84l-15.75 26.29-.15 21.1c-1.99 8.56-17.43 13.61-22.63 3.97v-19.87l-21.1-30.42c3.67-8.07 8.96-11.18 15.53-10.08 2.34.39 4.44 1.65 6.02 3.41 3.89 4.3 7.09 10.59 9.95 17.83z" fill="url(#b)"/><path d="M215.89 136.29c-4.4 0-8.08-2.07-10.08-5.76l-.12-.22V110.5l-21.24-30.63.24-.52c3.77-8.29 9.36-11.87 16.6-10.66 2.47.41 4.81 1.74 6.6 3.72 3.27 3.63 6.22 8.72 9.22 15.9l9.69-22.78c1.04-2.45 3.15-4.19 5.65-4.67 5.4-1.02 10.25.39 13 3.78 2.87 3.54 3.11 8.67.69 14.43l-.06.13-15.61 26.06-.18 21.04c-1.13 4.89-6.36 9.03-12.43 9.85-.67.09-1.33.14-1.97.14zm-8.2-6.5c1.93 3.37 5.53 4.97 9.91 4.38 5.14-.69 9.72-4.21 10.72-8.21l.15-21.25 15.85-26.47c2.09-5.03 1.94-9.41-.43-12.34-2.27-2.81-6.41-3.95-11.07-3.07-1.84.35-3.4 1.65-4.18 3.49l-11.59 27.24-.9-2.27c-3.18-8.04-6.37-13.77-9.75-17.54-1.49-1.65-3.42-2.75-5.45-3.09-6.18-1.03-10.83 1.91-14.21 9l20.95 30.21v19.92z" fill="#FFF"/></g><g><linearGradient id="c" x1=".5" y1="1" x2=".5" y2="0" gradientTransform="matrix(47.93 0 0 75.991 72.42 86.959)" gradientUnits="userSpaceOnUse"><stop offset="33.8%" stop-color="#3f7cb5"/><stop offset="100%" stop-color="#2bb1d2"/></linearGradient><path d="M78.87 139.74c6.95 5.79 16.45 4.17 18.54-4.45V97.33c2.78-12.27 19.93-14.13 22.94-3.01v42.17c0 17.92-21.34 29.54-37.73 25.74-6.52-1.51-11.19-7.68-10.02-14.27.65-3.66 2.85-6.79 6.27-8.22z" fill="url(#c)"/><path d="M89.07 163.95c-2.28 0-4.53-.24-6.67-.74-7.28-1.69-12.01-8.46-10.78-15.42.74-4.19 3.25-7.46 6.87-8.98l.56-.23.47.39c3.4 2.83 7.68 3.88 11.16 2.72 2.88-.95 4.91-3.27 5.74-6.52l.02-38.05c1.7-7.5 8.26-11.04 13.63-11.15 5.55-.12 9.86 2.99 11.25 8.09l.03.26v42.17c0 7.5-3.63 14.52-10.23 19.76-6.21 4.95-14.35 7.7-22.05 7.7zM78.73 140.9c-2.7 1.34-4.56 3.94-5.14 7.24-1.05 5.91 3.02 11.67 9.26 13.12 8.83 2.05 19.44-.53 27.03-6.57 6.11-4.86 9.47-11.32 9.47-18.2V94.46c-1.39-4.9-5.67-6.56-9.24-6.49-4.6.1-10.2 3.1-11.7 9.48v37.96l-.03.12c-.97 4.01-3.49 6.88-7.08 8.07-4.02 1.32-8.68.32-12.57-2.7z" fill="#FFF"/></g><g><linearGradient id="d" x1=".5" y1="1" x2=".5" y2="0" gradientTransform="matrix(65.371 0 0 70.885 126.073 77.072)" gradientUnits="userSpaceOnUse"><stop offset="33.8%" stop-color="#3f7cb5"/><stop offset="100%" stop-color="#2bb1d2"/></linearGradient><path d="M159.19 77.13c-42.07 3.16-45.98 73.28-.61 70.76 48.34-8.31 38.87-73.03.61-70.76zm8.48 36.74c-.83 7.91-5.66 13.89-10.8 13.35-5.13-.54-7.66-7.94-6.83-15.85.83-7.91 4.7-13.34 9.84-12.8 5.13.54 8.62 7.39 7.79 15.3z" fill="url(#d)"/><path d="M156.15 148.96c-21.36 0-30.06-16.02-30.99-30.18-1.28-19.61 11.07-40.92 33.95-42.64h.02c20.16-1.2 31.27 14.89 33.05 30.35 2.06 17.89-7.48 37.94-33.43 42.4l-.11.01c-.86.03-1.68.06-2.49.06zm3.1-70.83c-21.64 1.63-33.31 21.88-32.1 40.52.87 13.28 9.03 28.31 29.04 28.31.74 0 1.49-.02 2.26-.06 24.62-4.26 33.68-23.25 31.73-40.19-1.67-14.55-12.07-29.7-30.93-28.58zm-1.73 50.13c-.25 0-.5-.01-.76-.04-2.79-.29-5.09-2.35-6.48-5.78-1.24-3.07-1.68-7.04-1.25-11.17.92-8.78 5.32-14.3 10.94-13.69 2.83.3 5.29 2.22 6.92 5.43 1.56 3.06 2.18 6.96 1.76 10.97-.42 4.02-1.84 7.7-4 10.37-2.05 2.54-4.56 3.91-7.13 3.91zm1.69-28.72c-4.11 0-7.43 4.79-8.18 11.94-.4 3.81 0 7.44 1.11 10.21.77 1.92 2.24 4.27 4.83 4.54 2.14.22 4.31-.89 6.13-3.14 1.92-2.37 3.19-5.68 3.57-9.32.38-3.64-.17-7.14-1.56-9.86-1.31-2.58-3.21-4.12-5.35-4.35a9.75 9.75 0 00-.55-.02z" fill="#FFF"/></g></g></svg>
